<svg width="218" height="40" viewBox="0 0 218 40" fill="none" xmlns="http://www.w3.org/2000/svg">
<path d="M109.599 19.235C109.132 20.1452 108.905 21.139 108.905 22.2107C108.905 23.2824 109.138 24.2765 109.599 25.1864C110.06 26.0966 110.707 26.809 111.539 27.3359C112.365 27.8628 113.311 28.1264 114.359 28.1264C115.407 28.1264 116.299 27.9108 117.047 27.4737C117.79 27.0366 118.341 26.4497 118.7 25.7074H123.31C122.903 26.8569 122.31 27.9169 121.544 28.8748C120.772 29.8326 119.772 30.605 118.544 31.1978C117.311 31.7905 115.88 32.0839 114.239 32.0839C112.449 32.0839 110.809 31.6468 109.324 30.7607C107.833 29.8745 106.671 28.6831 105.827 27.1682C104.977 25.6595 104.558 24.007 104.558 22.2107C104.558 20.4146 104.983 18.7681 105.827 17.2532C106.671 15.7444 107.839 14.5469 109.324 13.6608C110.809 12.7807 112.443 12.3375 114.239 12.3375C115.88 12.3375 117.311 12.6309 118.544 13.2237C119.777 13.8105 120.778 14.5888 121.544 15.5469C122.31 16.5048 122.897 17.5645 123.31 18.7142H118.7C118.341 17.9717 117.79 17.3848 117.047 16.9478C116.305 16.5109 115.407 16.2953 114.359 16.2953C113.311 16.2953 112.371 16.5647 111.539 17.0855C110.707 17.6124 110.06 18.3249 109.599 19.235ZM128.364 19.5886C128.693 18.5527 129.298 17.6905 130.172 17.014C131.04 16.3374 132.22 15.9962 133.705 15.9962C134.633 15.9962 135.465 16.1758 136.225 16.5349C136.98 16.8941 137.597 17.3851 138.088 18.0138C138.572 18.6366 138.908 19.349 139.081 20.1454H128.202C128.25 19.9596 128.304 19.7741 128.364 19.5886ZM142.614 26.7375C142.739 26.4262 142.859 26.1147 142.961 25.7975H138.74C138.608 26.049 138.452 26.2825 138.279 26.5099C137.788 27.1386 137.171 27.6295 136.417 27.9888C135.662 28.3481 134.902 28.4438 133.98 28.4438C132.932 28.4438 131.944 28.1983 131.022 27.7132C130.094 27.2223 129.358 26.5698 128.789 25.7316C128.304 25.019 128.017 24.2287 127.933 23.3727H143.35C143.452 21.325 143.141 19.4567 142.428 17.7803H142.422C141.704 16.1039 140.602 14.7806 139.117 13.8046C137.632 12.8289 135.854 12.3438 133.782 12.3438C131.914 12.3438 130.214 12.7868 128.693 13.6671C127.172 14.5532 125.975 15.7446 125.101 17.2414C124.227 18.7443 123.796 20.3908 123.796 22.1811C123.796 22.5883 123.819 22.9833 123.867 23.3727C124.011 24.7378 124.418 26.007 125.083 27.1924C125.939 28.7193 127.143 29.9286 128.693 30.8269C130.244 31.719 132.004 32.174 133.974 32.174C136.046 32.174 137.824 31.6889 139.309 30.7131C140.794 29.7372 141.896 28.4139 142.614 26.7375ZM91.0196 25.2104C90.4927 26.1325 89.7922 26.863 88.9061 27.4017H88.9181C88.0319 27.9406 87.0561 28.2042 85.9781 28.2042C84.9005 28.2042 83.9246 27.9406 83.0384 27.4017C82.1522 26.863 81.4516 26.1325 80.9249 25.2104C80.398 24.2883 80.1346 23.3543 80.1346 22.2526C80.1346 21.151 80.3921 20.151 80.9009 19.2411C81.4099 18.331 82.1165 17.6183 83.0144 17.0916C83.9126 16.5647 84.8946 16.3012 85.9722 16.3012C87.05 16.3012 88.0378 16.5706 88.93 17.0916C89.828 17.6183 90.5345 18.331 91.0435 19.2411C91.5524 20.151 91.8098 21.199 91.8098 22.2526C91.8098 23.3064 91.5465 24.2883 91.0196 25.2104ZM91.1334 13.6727C89.5825 12.7807 87.8642 12.3316 85.9663 12.3316C84.0682 12.3316 82.3499 12.7807 80.7991 13.6727C79.2484 14.5768 78.039 15.7863 77.1528 17.307C76.2725 18.8339 75.8298 20.4743 75.8298 22.2467C75.8298 24.0188 76.2605 25.6654 77.1169 27.1861C77.9732 28.713 79.1767 29.9286 80.7271 30.8206H80.7213C82.2721 31.7127 84.0264 32.1618 85.9663 32.1618C87.9061 32.1618 89.6545 31.7068 91.2053 30.7966C92.7559 29.8867 93.9593 28.677 94.8156 27.1624C95.6719 25.6534 96.1029 24.0188 96.1029 22.2467C96.1029 20.4743 95.6658 18.8278 94.7799 17.307C93.8998 15.7804 92.684 14.5648 91.1334 13.6727ZM98.1933 12.685H102.414V31.8147H98.1933V12.685ZM156.013 4.15879H157.288V7.7693H156.3C155.354 7.7693 154.6 8.03264 154.043 8.55955C153.486 9.08646 153.109 9.8948 152.923 10.9964L152.628 12.685H157.288V16.3315H151.989L149.277 31.8145H149.269L148.967 33.5389C148.602 35.5865 147.782 37.1252 146.506 38.1432H146.512C145.231 39.1672 143.668 39.6819 141.824 39.6819C140.441 39.6819 139.483 39.6699 138.944 39.6459L139.579 36.0358H141.537C142.483 36.0358 143.237 35.7721 143.794 35.2454C144.351 34.7185 144.728 33.9101 144.914 32.8083L147.8 16.3315H144.673V12.685H148.438L148.87 10.2661C149.229 8.21838 150.049 6.67952 151.331 5.66167L151.324 5.65579C152.6 4.63184 154.169 4.15879 156.013 4.15879ZM79.6744 4.15879L68.2268 31.8145H63.6165L52.1685 4.15879H56.9704L66.0174 26.5701L75.0642 4.15879H79.6744ZM218 12.685L210.935 31.8147H206.714L202.086 18.2784L197.457 31.8147H193.236L186.171 12.685H190.566L195.446 26.5938L200.134 12.685H204.247L208.899 26.5938L213.815 12.685H218ZM160.096 4.15879H164.318V31.8145H160.096V4.15879ZM181.748 25.2104C181.221 26.1325 180.521 26.863 179.634 27.4017H179.646C178.76 27.9406 177.784 28.2042 176.706 28.2042C175.629 28.2042 174.653 27.9406 173.767 27.4017C172.881 26.863 172.18 26.1325 171.653 25.2104C171.126 24.2883 170.863 23.3543 170.863 22.2526C170.863 21.151 171.12 20.151 171.629 19.2411C172.138 18.331 172.85 17.6183 173.743 17.0916C174.641 16.5647 175.623 16.3012 176.701 16.3012C177.778 16.3012 178.766 16.5706 179.658 17.0916C180.556 17.6183 181.263 18.331 181.772 19.2411C182.281 20.151 182.538 21.199 182.538 22.2526C182.538 23.3064 182.275 24.2883 181.748 25.2104ZM181.861 13.6727C180.311 12.7807 178.592 12.3316 176.695 12.3316C174.797 12.3316 173.078 12.7807 171.527 13.6727C169.982 14.5768 168.767 15.7863 167.881 17.307C167.001 18.8339 166.558 20.4743 166.558 22.2467C166.558 24.0188 166.989 25.6654 167.845 27.1861C168.701 28.713 169.905 29.9286 171.455 30.8206H171.45C173 31.7127 174.749 32.1618 176.695 32.1618C178.64 32.1618 180.389 31.7068 181.939 30.7966C183.49 29.8867 184.694 28.677 185.55 27.1624C186.406 25.6534 186.837 24.0188 186.837 22.2467C186.837 20.4743 186.394 18.8278 185.508 17.307C184.628 15.7804 183.412 14.5648 181.861 13.6727ZM98.1933 4.15879H102.414V8.37992H98.1933V4.15879ZM39.6588 23.9218C39.9753 22.0448 40.1299 20.0281 40.1299 18.0186C40.1299 16.0093 39.9753 13.9923 39.6588 12.1154C42.6988 12.5644 45.0395 15.0376 45.0395 18.0186C45.0395 20.9997 42.6988 23.4729 39.6588 23.9218ZM36.7661 23.6053C34.8009 23.1196 26.7558 18.3866 26.3878 18.1805V17.8566C26.7558 17.6506 34.8009 12.9178 36.7661 12.4319C37.0384 14.0366 37.2152 15.8987 37.2152 18.0186C37.2152 20.1384 37.0384 22.0008 36.7661 23.6053ZM34.0206 30.193C33.8146 30.333 33.5644 30.3035 33.3361 30.1856C32.1216 29.5305 27.698 22.619 27.698 22.3834L27.9114 22.1553C29.2364 23.0753 32.6002 25.3645 36.0964 26.439C35.456 28.478 34.6683 29.7587 34.0206 30.193ZM33.3361 5.85155C33.5644 5.73383 33.8146 5.7044 34.0206 5.84414C34.6683 6.2784 35.456 7.55915 36.0964 9.5981C32.6002 10.6728 29.2364 12.9618 27.9114 13.882L27.698 13.6538C27.698 13.4183 32.1216 6.50664 33.3361 5.85155ZM21.5739 18.1805C21.2059 18.3866 13.1609 23.1196 11.1956 23.6053C10.9231 22.0008 10.7465 20.1384 10.7465 18.0186C10.7465 15.8987 10.9231 14.0366 11.1956 12.4319C13.1609 12.9178 21.2059 17.6506 21.5739 17.8566V18.1805ZM14.6256 30.1856C14.3974 30.3035 14.1471 30.333 13.9411 30.193C13.2932 29.7587 12.5058 28.478 11.8653 26.439C15.3616 25.3645 18.7253 23.0753 20.0503 22.1553L20.2638 22.3834C20.2638 22.619 15.8401 29.5305 14.6256 30.1856ZM13.9411 5.84414C14.1471 5.7044 14.3974 5.73383 14.6256 5.85155C15.8401 6.50664 20.2638 13.4183 20.2638 13.6538L20.0503 13.882C18.7253 12.9618 15.3616 10.6728 11.8653 9.5981C12.5058 7.55915 13.2932 6.2784 13.9411 5.84414ZM8.30275 23.9218C5.26296 23.4729 2.92229 20.9997 2.92229 18.0186C2.92229 15.0376 5.26296 12.5644 8.30275 12.1154C7.98621 13.9923 7.83165 16.0093 7.83165 18.0186C7.83165 20.0281 7.98621 22.0448 8.30275 23.9218ZM38.9965 9.13441C37.9143 5.40988 36.0964 2.75269 33.5644 2.75269C30.1858 2.75269 25.5559 12.2405 25.5559 12.2405L25.2542 12.1742L25.3353 11.1071C25.3488 10.9026 25.3623 10.4834 25.3761 9.95519C25.4421 7.4011 25.4138 4.8457 25.2987 2.29358L25.1986 0.0701942C25.1967 0.0309542 25.1644 -3.8147e-06 25.1249 -3.8147e-06H22.8366C22.7973 -3.8147e-06 22.7649 0.0309542 22.7631 0.0701942L22.6631 2.29358C22.548 4.8457 22.5196 7.4011 22.5857 9.95519C22.5992 10.4834 22.6129 10.9026 22.6264 11.1071L22.7075 12.1742L22.4056 12.2405C22.4056 12.2405 17.7759 2.75269 14.3974 2.75269C11.8653 2.75269 10.0472 5.40988 8.96525 9.13441C3.99681 9.29639 0 13.2121 0 18.0186C0 22.825 3.99681 26.741 8.96525 26.9029C10.0472 30.6273 11.8653 33.2845 14.3974 33.2845C17.7759 33.2845 22.4056 23.7967 22.4056 23.7967L22.7075 23.8629L22.6264 24.9303C22.6129 25.1347 22.5992 25.5537 22.5857 26.0822C22.5196 28.636 22.548 31.1917 22.6631 33.7438L22.7631 35.9669C22.7649 36.0064 22.7973 36.0374 22.8366 36.0374H25.1249C25.1644 36.0374 25.1967 36.0064 25.1986 35.9669L25.2987 33.7438C25.4138 31.1917 25.4421 28.636 25.3761 26.0822C25.3623 25.5537 25.3488 25.1347 25.3353 24.9303L25.2542 23.8629L25.5559 23.7967C25.5559 23.7967 30.1858 33.2845 33.5644 33.2845C36.0964 33.2845 37.9143 30.6273 38.9965 26.9029C43.9649 26.741 47.9615 22.825 47.9615 18.0186C47.9615 13.2121 43.9649 9.29639 38.9965 9.13441Z" fill="white"/>
</svg>
